<svg width="200" height="200" viewBox="0 0 200 200" fill="none" xmlns="http://www.w3.org/2000/svg">
<path d="M166.667 108.333C166.667 150 137.5 170.833 102.833 182.917C101.018 183.532 99.0462 183.502 97.25 182.833C62.5 170.833 33.3333 150 33.3333 108.333V50C33.3333 47.7899 34.2113 45.6702 35.7741 44.1074C37.3369 42.5446 39.4565 41.6667 41.6667 41.6667C58.3333 41.6667 79.1667 31.6667 93.6667 19C95.4321 17.4917 97.678 16.6629 100 16.6629C102.322 16.6629 104.568 17.4917 106.333 19C120.917 31.75 141.667 41.6667 158.333 41.6667C160.543 41.6667 162.663 42.5446 164.226 44.1074C165.789 45.6702 166.667 47.7899 166.667 50V108.333Z" stroke="#B2E5B2" stroke-width="15" stroke-linecap="round" stroke-linejoin="round"/>
<path d="M75 100L91.6667 116.667L125 83.3333" stroke="#B2E5B2" stroke-width="15" stroke-linecap="round" stroke-linejoin="round"/>
</svg>
